<svg width="15" height="18" viewBox="0 0 15 18" fill="none" xmlns="http://www.w3.org/2000/svg">
<path d="M8.32652 14.6325C9.09264 13.0097 9.40255 11.209 9.22302 9.42351C9.06102 7.86251 9.14652 7.98901 9.31702 7.30351C10.556 8.29201 12.106 8.12101 13.372 7.81101C13.5513 8.09579 13.6723 8.41337 13.7278 8.74529C13.7834 9.07721 13.7724 9.41686 13.6955 9.74451C13.3127 12.129 12.2026 14.337 10.517 16.0665C9.11752 17.501 7.71652 17.6425 6.13052 16.4315C3.89752 14.726 2.01502 12.7265 1.27252 9.90051C0.869021 8.36451 2.11752 5.95201 3.60252 5.38851C3.95252 5.24351 4.35502 5.33101 4.61352 5.60751M4.61352 5.60751C5.40577 6.35698 6.00836 7.28417 6.37152 8.31251C6.64552 8.99001 6.87802 9.68401 7.14752 10.421C5.86952 6.81951 5.31452 6.18851 4.61352 5.60751ZM4.61352 5.60751C5.05602 4.54001 6.28602 3.72551 6.66952 3.35351C6.81952 3.19201 6.89802 2.97651 6.88502 2.75651C6.84835 2.66527 6.8316 2.56724 6.8359 2.469C6.8402 2.37076 6.86545 2.27458 6.90996 2.18689C6.95447 2.0992 7.0172 2.02204 7.09396 1.96058C7.17072 1.89911 7.25973 1.85477 7.35502 1.83051C7.94552 1.58451 8.51002 1.25051 9.17502 1.79751C9.34622 1.88053 9.53255 1.92778 9.72262 1.93637C9.91269 1.94497 10.1025 1.91473 10.2805 1.84751C11.2355 1.54351 12.1605 1.14751 12.978 0.833008L14.072 3.03801C13.4035 3.50001 12.582 4.03151 11.8025 4.61901C11.1926 5.06671 10.6193 5.56227 10.088 6.10101" stroke="#05162C" stroke-linecap="round" stroke-linejoin="round"/>
</svg>
