<svg width="21" height="20" viewBox="0 0 21 20" fill="none" xmlns="http://www.w3.org/2000/svg">
<path d="M7.50002 4.00002C8.00002 4.50002 9.00302 4.41202 10.5 3.17602M10.5 3.17602C10.2787 2.99468 10.049 2.78602 9.81102 2.55002C7.50502 0.266016 4.36502 0.713016 2.89402 2.55002C1.87802 3.82002 -0.721976 6.98001 5.64202 18.24C5.90602 18.706 6.43102 19 6.99602 19C7.89802 19 8.60302 18.28 8.63202 17.44C8.69502 15.658 9.04002 13.603 10.5 13.603C11.96 13.603 12.306 15.658 12.368 17.44C12.397 18.28 13.102 19 14.004 19C14.569 19 15.094 18.706 15.358 18.24C21.723 6.97902 19.122 3.82002 18.106 2.55002C16.635 0.713016 13.495 0.266016 11.189 2.55002C10.951 2.78535 10.7214 2.99402 10.5 3.17602Z" stroke="#05162C" stroke-width="1.5" stroke-linecap="round" stroke-linejoin="round"/>
</svg>
