<svg width="24" height="22" viewBox="0 0 24 22" fill="none" xmlns="http://www.w3.org/2000/svg">
<path d="M12 6C11.5584 6.00693 11.12 6.07709 10.6983 6.20833C10.8934 6.55138 10.9972 6.93871 11 7.33333C11 7.63975 10.9396 7.94317 10.8224 8.22626C10.7051 8.50935 10.5332 8.76658 10.3166 8.98325C10.0999 9.19992 9.84267 9.37179 9.55957 9.48905C9.27648 9.60631 8.97306 9.66666 8.66664 9.66666C8.27202 9.66393 7.88469 9.56006 7.54164 9.365C7.27099 10.3037 7.30254 11.3037 7.63181 12.2234C7.96109 13.1432 8.5714 13.936 9.3763 14.4896C10.1812 15.0432 11.1399 15.3295 12.1165 15.308C13.0932 15.2865 14.0384 14.9582 14.8181 14.3697C15.5978 13.7812 16.1726 12.9623 16.4611 12.0289C16.7495 11.0956 16.737 10.0951 16.4253 9.16928C16.1135 8.24344 15.5184 7.43916 14.7242 6.87035C13.9299 6.30155 12.9769 5.99705 12 6ZM23.855 10.0583C21.5954 5.64958 17.1221 2.66666 12 2.66666C6.87789 2.66666 2.40331 5.65166 0.144977 10.0587C0.0496613 10.2473 0 10.4556 0 10.6669C0 10.8781 0.0496613 11.0865 0.144977 11.275C2.40456 15.6837 6.87789 18.6667 12 18.6667C17.1221 18.6667 21.5966 15.6817 23.855 11.2746C23.9503 11.086 24 10.8777 24 10.6665C24 10.4552 23.9503 10.2469 23.855 10.0583ZM12 16.6667C7.88956 16.6667 4.12123 14.375 2.08623 10.6667C4.12123 6.95833 7.88914 4.66666 12 4.66666C16.1108 4.66666 19.8787 6.95833 21.9137 10.6667C19.8791 14.375 16.1108 16.6667 12 16.6667Z" fill="#05162C"/>
</svg>
