<svg width="21" height="22" viewBox="0 0 21 22" fill="none" xmlns="http://www.w3.org/2000/svg">
<path d="M8.625 17C8.625 17 9.375 16.25 10.5 16.25C11.625 16.25 12.375 17 12.375 17M20.25 11C20.25 16.385 15.885 20.75 10.5 20.75C5.115 20.75 0.75 16.385 0.75 11C0.75 5.615 5.115 1.25 10.5 1.25C15.885 1.25 20.25 5.615 20.25 11ZM15.75 12.5C15.75 12.6989 15.671 12.8897 15.5303 13.0303C15.3897 13.171 15.1989 13.25 15 13.25C14.8011 13.25 14.6103 13.171 14.4697 13.0303C14.329 12.8897 14.25 12.6989 14.25 12.5C14.25 12.3011 14.329 12.1103 14.4697 11.9697C14.6103 11.829 14.8011 11.75 15 11.75C15.1989 11.75 15.3897 11.829 15.5303 11.9697C15.671 12.1103 15.75 12.3011 15.75 12.5ZM6.75 12.5C6.75 12.6989 6.67098 12.8897 6.53033 13.0303C6.38968 13.171 6.19891 13.25 6 13.25C5.80109 13.25 5.61032 13.171 5.46967 13.0303C5.32902 12.8897 5.25 12.6989 5.25 12.5C5.25 12.3011 5.32902 12.1103 5.46967 11.9697C5.61032 11.829 5.80109 11.75 6 11.75C6.19891 11.75 6.38968 11.829 6.53033 11.9697C6.67098 12.1103 6.75 12.3011 6.75 12.5Z" stroke="#05162C" stroke-linecap="round" stroke-linejoin="round"/>
</svg>
