<svg width="25" height="22" viewBox="0 0 25 22" fill="none" xmlns="http://www.w3.org/2000/svg">
<path d="M13.25 1.25C13.25 1.05109 13.1709 0.860322 13.0303 0.71967C12.8896 0.579018 12.6989 0.5 12.5 0.5C12.3011 0.5 12.1103 0.579018 11.9696 0.71967C11.829 0.860322 11.75 1.05109 11.75 1.25V9.1145L11 9.65V6.08C11 4.655 9.84496 3.5 8.41997 3.5C7.63397 3.5 6.88546 3.905 6.25546 4.388C5.60896 4.886 4.98496 5.5475 4.43146 6.2315C3.32747 7.5935 2.41097 9.1505 2.06147 9.9515C1.79747 10.559 1.47197 11.6915 1.22747 12.968C0.979965 14.2535 0.802965 15.7535 0.865965 17.1065C0.925965 18.407 1.21547 19.7915 2.12297 20.6015C3.12796 21.5015 4.55596 21.4355 6.23446 20.5955L8.92696 19.25C9.54986 18.9386 10.0737 18.4598 10.4399 17.8674C10.806 17.2751 10.9999 16.5924 11 15.896V14.75C11 14.5511 10.9209 14.3603 10.7803 14.2197C10.6396 14.079 10.4489 14 10.25 14C10.0511 14 9.86029 14.079 9.71964 14.2197C9.57898 14.3603 9.49996 14.5511 9.49996 14.75V15.896C9.49995 16.3141 9.38346 16.7239 9.16355 17.0794C8.94364 17.435 8.62901 17.7223 8.25496 17.909L5.56396 19.2545C4.09696 19.988 3.44147 19.769 3.12197 19.4825C2.70197 19.1075 2.42147 18.281 2.36447 17.0375C2.30897 15.845 2.46647 14.4725 2.70047 13.25C2.93597 12.02 3.23597 11.0135 3.43696 10.55C3.72196 9.893 4.56196 8.45 5.59696 7.175C6.10996 6.542 6.65146 5.9765 7.17046 5.5775C7.70747 5.1635 8.12897 5 8.41997 5C8.7064 5 8.9811 5.11379 9.18364 5.31633C9.38618 5.51886 9.49996 5.79357 9.49996 6.08V10.721L6.81496 12.641C6.66439 12.7605 6.56547 12.9333 6.53863 13.1237C6.51179 13.3141 6.55907 13.5075 6.67073 13.664C6.78238 13.8205 6.94987 13.9281 7.13862 13.9647C7.32736 14.0013 7.52294 13.964 7.68496 13.8605L12.5 10.421L17.315 13.8605C17.3949 13.9214 17.4863 13.9656 17.5837 13.9904C17.681 14.0153 17.7824 14.0204 17.8817 14.0053C17.9811 13.9903 18.0764 13.9554 18.162 13.9028C18.2476 13.8501 18.3218 13.7809 18.3801 13.699C18.4384 13.6172 18.4797 13.5244 18.5015 13.4263C18.5233 13.3282 18.5251 13.2268 18.5069 13.1279C18.4887 13.0291 18.4508 12.9349 18.3955 12.851C18.3402 12.7671 18.2686 12.6952 18.185 12.6395L15.5 10.721V6.08C15.5 5.79357 15.6137 5.51886 15.8163 5.31633C16.0188 5.11379 16.2935 5 16.58 5C16.871 5 17.2925 5.165 17.8295 5.5775C18.3485 5.9765 18.8885 6.542 19.4045 7.1765C20.4365 8.4515 21.2765 9.893 21.563 10.55C21.764 11.0135 22.064 12.02 22.2995 13.25C22.5335 14.471 22.6895 15.845 22.6355 17.0375C22.5785 18.281 22.2995 19.1075 21.878 19.4825C21.5585 19.7675 20.903 19.988 19.436 19.2545L16.7435 17.909C16.3697 17.7221 16.0554 17.4347 15.8357 17.0792C15.6161 16.7236 15.4998 16.3139 15.5 15.896V14.75C15.5 14.5511 15.4209 14.3603 15.2803 14.2197C15.1396 14.079 14.9489 14 14.75 14C14.5511 14 14.3603 14.079 14.2196 14.2197C14.079 14.3603 14 14.5511 14 14.75V15.896C14 16.5924 14.1939 17.2751 14.5601 17.8674C14.9262 18.4598 15.4501 18.9386 16.073 19.25L18.7655 20.5955C20.4455 21.4355 21.8705 21.5 22.877 20.6015C23.7845 19.7915 24.074 18.407 24.134 17.1065C24.197 15.7535 24.02 14.2535 23.774 12.968C23.528 11.69 23.204 10.559 22.937 9.95C22.589 9.1505 21.6725 7.5935 20.5685 6.2315C20.0135 5.5475 19.391 4.886 18.7445 4.388C18.1145 3.905 17.366 3.5 16.58 3.5C15.155 3.5 14 4.655 14 6.08V9.65L13.25 9.1145V1.25Z" fill="#05162C"/>
</svg>
